<svg
    viewBox="0 0 114 136"
    fill="none"
    xmlns="http://www.w3.org/2000/svg"
>
    <g fill="transparent">
        <path
            fill-rule="evenodd"
            clip-rule="evenodd"
            d="M62.2909 98.7498L57.8779 73.861L58.3384 73.78L62.7507 98.668L62.2909 98.7498Z"
            fill="#B2BAC2"
        />
        <path
            d="M99.3673 116.312L81.0523 119.174L79.1458 108.357L78.2286 108.501L78.0246 107.346L78.9418 107.202L67.4308 41.935L68.7441 41.7318L73.5696 69.0738L99.0681 65.0995L92.6706 28.8625L67.1728 32.8368L67.3708 33.9678L66.0576 34.1718L61.0281 5.69202L89.6256 1.23853L91.8193 13.6585L90.0328 13.9398L89.2476 9.48102L63.7498 13.4493L66.9688 31.6698L92.4673 27.6948L91.5561 22.5415L93.3426 22.2603L96.5916 40.654L101.4 39.8995L101.736 41.815L96.9276 42.5695L100.855 64.8183L101.574 64.7043L102.497 69.9295L100.777 70.1995L100.201 66.925L84.0913 69.439L86.4478 82.7868L104.338 79.9975L105.171 84.7083L103.336 84.9955L102.743 81.6138L81.0343 85.0015L83.9181 101.367L105.693 97.9668L105.177 95.0275L106.903 94.7583L107.671 99.0977L89.8408 101.881L92.2033 115.295L108.283 112.781L107.725 109.62L109.416 109.357L110.339 114.606L109.662 114.714L113.343 135.622L18.2158 135.628V133.923H22.0108L18.9531 116.588L69.9966 108.603L70.2006 109.758L41.0938 114.313L41.7831 118.33L37.4301 118.994L36.7468 114.996L22.3521 117.246L25.2958 133.923L99.8173 133.917L99.3673 116.312Z"
            fill="#D3DAE1"
        />
        <path
            fill-rule="evenodd"
            clip-rule="evenodd"
            d="M89.815 0.972168L92.0905 13.8519L89.8419 14.2059L89.0567 9.74642L64.0202 13.6427L67.159 31.4034L92.1947 27.5004L91.2842 22.3472L93.532 21.9932L96.7817 40.3877L101.59 39.6332L102.006 42.0084L97.1987 42.7629L101.044 64.5512L101.763 64.4372L102.768 70.1237L100.586 70.4649L100.01 67.1904L84.3624 69.6324L86.6372 82.5204L104.527 79.7312L105.442 84.9017L103.145 85.2617L102.552 81.8792L81.3047 85.1957L84.1074 101.1L105.421 97.7724L104.906 94.8332L107.093 94.4919L107.942 99.2912L90.112 102.075L92.3927 115.028L108.011 112.586L107.453 109.426L109.605 109.091L110.609 114.8L109.932 114.908L113.62 135.855L17.9814 135.861V133.688H21.7314L18.6812 116.393L70.1867 108.337L70.4717 109.952L41.3634 114.507L42.0527 118.524L37.2384 119.259L36.5552 115.262L22.6232 117.44L25.4912 133.688L99.577 133.682L99.1404 116.584L80.8614 119.439L78.9549 108.623L78.0377 108.767L77.7527 107.152L78.6699 107.008L67.159 41.7407L68.9334 41.4654L73.7597 68.8074L98.7962 64.9052L92.4804 29.1279L67.4432 33.0302L67.6412 34.1619L65.8675 34.4372L60.7562 5.49769L89.815 0.972168ZM61.2985 5.88544L66.2477 33.9054L67.099 33.7734L66.9017 32.6424L92.8607 28.5962L99.3385 65.2929L73.3795 69.3392L68.5532 41.9972L67.702 42.1292L79.2122 107.396L78.2949 107.54L78.4179 108.235L79.3352 108.091L81.2417 118.907L99.5935 116.04L100.056 134.15L25.0997 134.156L22.0802 117.052L36.9377 114.729L37.6217 118.728L41.512 118.134L40.8227 114.119L69.9287 109.564L69.8057 108.869L19.2234 116.781L22.2887 134.156H18.4487V135.394L113.064 135.389L109.39 114.521L110.067 114.413L109.225 109.623L107.996 109.814L108.554 112.975L92.0125 115.561L89.569 101.687L107.399 98.9034L106.713 95.0237L105.448 95.2209L105.963 98.1602L83.7272 101.632L80.7625 84.8072L102.932 81.3474L103.526 84.7292L104.899 84.5139L104.147 80.2629L86.2569 83.0529L83.8194 69.2447L100.391 66.6587L100.966 69.9324L102.225 69.7359L101.383 64.9704L100.664 65.0844L96.6557 42.3752L101.464 41.6207L101.209 40.1657L96.4014 40.9202L93.1517 22.5264L91.8265 22.7349L92.7377 27.8889L66.7787 31.9352L63.478 13.2549L89.4377 9.21468L90.223 13.6734L91.5475 13.4649L89.4347 1.50393L61.2985 5.88544Z"
            fill="#B2BAC2"
        />
        <path
            d="M17.2325 106.849L17.0645 105.891L17.6217 105.801L62.5205 98.7084L63.0845 98.6184L63.2517 99.5761L17.2325 106.849Z"
            fill="#D3DAE1"
        />
        <path
            fill-rule="evenodd"
            clip-rule="evenodd"
            d="M63.2742 98.3516L63.5225 99.7699L17.0412 107.115L16.793 105.699L17.5842 105.571L62.483 98.4776L63.2742 98.3516ZM62.8932 98.8856L62.5565 98.9388L17.6585 106.032L17.3345 106.084L17.4222 106.583L62.9802 99.3828L62.8932 98.8856Z"
            fill="#B2BAC2"
        />
        <path
            d="M25.5957 52.5114L25.0685 49.4589L29.4207 48.8004L29.942 51.8289L53.018 48.1899L49.187 26.7429L50.4342 26.5457L55.5837 55.3967L54.3372 55.5939L53.228 49.3389L43.3955 50.8892L47.5685 74.2689L58.5755 72.5334L58.7855 73.7124L58.1022 73.8204L16.1892 80.4347L16.0692 79.7702L15.9612 79.1777L46.3752 74.3769L42.2142 51.0804L9.45647 56.2524L8.85123 56.3484L8.28722 56.4377L0.907227 15.1247L2.07647 14.9394L47.0885 7.84668L47.2745 8.89368L49.013 18.6204L47.7665 18.8184L46.0272 9.09168L2.26248 15.9872L9.24647 55.0974L25.5957 52.5114Z"
            fill="#D3DAE1"
        />
        <path
            fill-rule="evenodd"
            clip-rule="evenodd"
            d="M47.279 7.58057L47.5047 8.85333L49.2852 18.8141L47.5768 19.0848L45.8382 9.35806L2.534 16.1808L9.43625 54.8306L25.325 52.3181L24.7977 49.2633L29.612 48.5351L30.1332 51.5628L52.7465 47.9966L48.9155 26.5503L50.624 26.2796L55.856 55.5903L54.1475 55.8603L53.0382 49.6053L43.6677 51.0828L47.7582 74.0028L58.7653 72.2673L59.057 73.9061L16.0002 80.7011L15.8397 79.8123L15.689 78.9843L46.1037 74.1836L42.0252 51.3476L9.49324 56.4836L8.0975 56.7048L0.635742 14.9321L2.03975 14.7093L47.279 7.58057ZM2.11249 15.1706L1.17874 15.3183L8.47698 56.1716L9.41975 56.0216L42.404 50.8143L46.6475 74.5706L16.2342 79.3713L16.2987 79.7283L16.3782 80.1686L58.0655 73.5896L58.514 73.5191L58.3857 72.7998L47.3787 74.5361L43.124 50.6958L53.4177 49.0728L54.527 55.3278L55.3122 55.2033L50.2445 26.8121L49.4592 26.9366L53.2902 48.3836L29.7515 52.0961L29.2295 49.0653L25.3392 49.6541L25.8665 52.7051L9.05674 55.3638L1.99024 15.7938L46.217 8.82557L47.9555 18.5516L48.7415 18.4271L47.045 8.93507L46.8987 8.11308L2.11249 15.1706Z"
            fill="#B2BAC2"
        />
        <path
            fill-rule="evenodd"
            clip-rule="evenodd"
            d="M104.504 97.267L101.976 82.3712L100.982 82.5175L101.664 86.1018L101.32 86.1588L100.873 83.3343L100.972 83.2277L100.86 83.248L100.852 83.2007L94.9767 84.1855L94.9362 83.803L92.6937 84.16L92.7485 84.5582L91.2462 84.8102L91.196 84.4412L88.9302 84.8132L88.994 85.1875L82.793 86.2255L85.115 99.9092L85.4585 99.8515L85.469 99.9137L85.5387 99.838L91.3265 98.8607L91.4075 99.3355L93.6117 98.9492L93.533 98.4888L95.0562 98.2315L95.1125 98.6635L97.403 98.2765L97.3137 97.8505L103.099 96.874L103.069 96.6842L103.37 96.6333L103.496 97.4163L104.504 97.267ZM103.35 96.5072L103.015 96.3347L102.633 93.8822L102.919 93.8343L103.35 96.5072ZM102.844 93.373L102.101 93.499L102.501 96.0708L93.3927 91.3855L100.469 83.7692L100.932 86.6965L101.742 86.5622L102.844 93.373ZM102.102 85.9068L101.532 82.909L101.592 82.9L102.102 85.9068ZM102.241 86.7213L103.964 96.8747L103.884 96.8867L103.365 93.6707L102.241 86.7213ZM99.6822 83.9297L92.9607 91.1635L84.2052 86.6597L99.6822 83.9297ZM83.789 86.9702L92.6307 91.519L85.7802 98.8915L83.789 86.9702ZM86.264 99.058L93.0627 91.7402L102.078 96.3782L86.264 99.058Z"
            fill="#9199A1"
        />
        <path
            fill-rule="evenodd"
            clip-rule="evenodd"
            d="M107.709 111.584L105.737 99.9662L104.668 100.123L104.761 100.611L104.689 100.625L100.658 101.299L100.627 101.011L98.6486 101.325L98.6914 101.628L97.9391 101.754L97.9009 101.476L95.9066 101.802L95.9546 102.086L91.4434 102.842L93.2591 113.541L97.7786 112.778L97.8394 113.139L99.7834 112.798L99.7241 112.451L100.485 112.322L100.529 112.649L102.548 112.308L102.48 111.985L106.56 111.297L106.632 111.742L107.709 111.584ZM104.616 101.34L104.89 101.294L105.264 103.296L106.084 108.348L105.544 108.439L105.821 110.211L99.6596 106.889L104.616 101.34ZM105.221 110.672L94.6856 112.457L99.1871 107.418L105.221 110.672ZM93.1856 103.398L103.476 101.58L99.0349 106.552L93.1856 103.398ZM98.5616 107.081L93.9926 112.196L92.5999 103.866L98.5616 107.081Z"
            fill="#9199A1"
        />
        <path
            fill-rule="evenodd"
            clip-rule="evenodd"
            d="M99.751 67.6226L101.664 79.2491L100.602 79.4471L100.532 78.9558L100.459 78.9663L96.4263 79.6316L96.4908 79.9136L94.5175 80.2563L94.459 79.9563L93.706 80.08L93.7608 80.3561L91.7681 80.6921L91.7215 80.4078L87.208 81.1525L85.4463 70.4441L89.9688 69.7038L89.9096 69.3431L91.8588 69.037L91.9165 69.3851L92.6778 69.2606L92.6125 68.9373L94.6338 68.6066L94.675 68.9335L98.758 68.2653L98.6815 67.8206L99.751 67.6226ZM97.6945 69.289L87.148 71.0081L93.0445 74.3185L97.6945 69.289ZM88.675 80.0628L99.0003 78.4541L93.1825 75.1878L88.675 80.0628ZM100.158 78.3123L100.431 78.2666L100.134 76.252L99.2665 71.2083L98.7265 71.2968L98.4116 69.5313L93.664 74.6666L100.158 78.3123ZM92.563 74.8398L86.5766 71.4791L87.9685 79.8093L92.563 74.8398Z"
            fill="#9199A1"
        />
    </g>
</svg>
